#N canvas 378 139 1231 658 10;
#X obj 4 198 vu 15 120 empty empty -1 -8 0 10 -66577 -1 1 0;
#X obj 3 171 - 80;
#X obj 107 121 hsl 50 15 0 1 0 0 empty empty empty -2 -8 0 10 -262144
-1 -1 2102 1;
#X floatatom 104 32 5 0 0 0 - - -;
#X obj 104 77 line;
#X msg 104 54 \$1 2000;
#X obj -24 137 env~ 352800 176400;
#X obj -26 37 inlet~;
#X obj -77 136 outlet~;
#X obj -78 81 *~;
#X obj 104 8 max 0.1;
#X floatatom 226 -1 5 0 0 0 - - -;
#X obj 104 -16 min 0.5;
#X obj 104 -62 * -0.01818;
#X obj 104 -38 + 0.4636;
#X connect 1 0 0 0;
#X connect 1 0 13 0;
#X connect 2 0 9 1;
#X connect 3 0 5 0;
#X connect 4 0 2 0;
#X connect 5 0 4 0;
#X connect 6 0 1 0;
#X connect 7 0 6 0;
#X connect 7 0 9 0;
#X connect 9 0 8 0;
#X connect 10 0 3 0;
#X connect 12 0 10 0;
#X connect 13 0 14 0;
#X connect 14 0 12 0;
#X coords 0 -1 1 1 55 40 1 100 100;
