#N canvas 403 318 450 359 10;
#X obj 192 179 vline~;
#X obj 106 223 *~;
#X obj 127 268 *~;
#X obj 97 47 inlet~;
#X obj 168 15 inlet;
#X obj 235 15 inlet;
#X msg 168 123 1 \$1;
#X msg 235 124 0 \$1;
#X obj 168 37 bng 15 250 50 0 empty empty empty 17 7 0 10 -262144 -1
-1;
#X obj 235 37 bng 15 250 50 0 empty empty empty 17 7 0 10 -262144 -1
-1;
#X obj 107 245 outlet~;
#X obj 126 289 outlet~;
#X obj 168 58 random 20000 30000;
#X obj 235 91 random 20000 30000;
#X connect 0 0 1 1;
#X connect 0 0 2 1;
#X connect 1 0 10 0;
#X connect 2 0 11 0;
#X connect 3 0 1 0;
#X connect 3 0 2 0;
#X connect 4 0 8 0;
#X connect 5 0 9 0;
#X connect 6 0 0 0;
#X connect 7 0 0 0;
#X connect 8 0 12 0;
#X connect 9 0 13 0;
#X connect 12 0 6 0;
#X connect 13 0 7 0;
