#N canvas 345 198 940 544 10;
#X obj 173 78 inlet;
#X obj 169 315 outlet~;
#X obj 170 235 metro;
#X obj 170 211 t b f;
#X obj 123 141 s \$0-FILENAME;
#X obj 256 139 s \$0-LOOP-LENGTH;
#X obj 170 183 r \$0-LOOP-LENGTH;
#X obj 170 260 bng 15 250 50 0 empty empty empty 17 7 0 10 -262144
-1 -1;
#N canvas 65 54 1535 846 (subpatch) 0;
#X array \$0-SOUND 110251 float 2;
#X coords 0 1 110251 -1 200 140 1;
#X restore 373 184 graph;
#X obj 639 290 soundfiler;
#X obj 684 211 f \$0;
#X obj 684 185 loadbang;
#X msg 746 185 bang;
#X msg 639 263 read -resize \$1 \$2-SOUND;
#X obj 639 234 pack s f;
#X obj 596 185 r \$0-FILENAME;
#X obj 170 285 tabplay~ \$0-SOUND;
#X obj 173 101 unpack s f s;
#X floatatom 207 235 5 0 0 0 - - -;
#X connect 0 0 17 0;
#X connect 2 0 7 0;
#X connect 3 0 2 0;
#X connect 3 1 2 1;
#X connect 3 1 18 0;
#X connect 6 0 3 0;
#X connect 7 0 16 0;
#X connect 10 0 14 1;
#X connect 11 0 10 0;
#X connect 12 0 10 0;
#X connect 13 0 9 0;
#X connect 14 0 13 0;
#X connect 15 0 14 0;
#X connect 16 0 1 0;
#X connect 17 0 4 0;
#X connect 17 1 5 0;
