#N canvas 66 82 1535 846 10;
#X obj 173 78 inlet;
#X obj 197 572 outlet~;
#X obj 216 405 metro;
#X obj 205 323 t b f;
#X obj 123 141 s \$0-FILENAME;
#X obj 256 139 s \$0-LOOP-LENGTH;
#X obj 217 210 r \$0-LOOP-LENGTH;
#X obj 216 430 bng 15 250 50 0 empty empty empty 17 7 0 10 -262144
-1 -1;
#N canvas 65 54 1535 846 (subpatch) 0;
#X array \$0-SOUND 110466 float 2;
#X coords 0 1 110466 -1 200 140 1;
#X restore 715 321 graph;
#X obj 981 427 soundfiler;
#X obj 1026 348 f \$0;
#X obj 1026 322 loadbang;
#X msg 1088 322 bang;
#X msg 981 400 read -resize \$1 \$2-SOUND;
#X obj 981 371 pack s f;
#X obj 938 322 r \$0-FILENAME;
#X obj 216 455 tabplay~ \$0-SOUND;
#X obj 105 406 metro;
#X obj 105 431 bng 15 250 50 0 empty empty empty 17 7 0 10 -262144
-1 -1;
#X obj 105 455 tabplay~ \$0-SOUND;
#X obj 238 373 * 2;
#X obj 105 384 del;
#X text 277 345 length of the fade out/in;
#X floatatom 217 291 5 0 0 0 - - -;
#X obj 257 280 bng 15 250 50 0 empty empty empty 17 7 0 10 -262144
-1 -1;
#X obj 238 346 - 2;
#X obj 173 101 unpack s f;
#X connect 0 0 26 0;
#X connect 2 0 7 0;
#X connect 3 0 2 0;
#X connect 3 0 21 0;
#X connect 3 1 25 0;
#X connect 6 0 23 0;
#X connect 7 0 16 0;
#X connect 10 0 14 1;
#X connect 11 0 10 0;
#X connect 12 0 10 0;
#X connect 13 0 9 0;
#X connect 14 0 13 0;
#X connect 15 0 14 0;
#X connect 16 0 1 0;
#X connect 17 0 18 0;
#X connect 18 0 19 0;
#X connect 19 0 1 0;
#X connect 20 0 2 1;
#X connect 20 0 17 1;
#X connect 21 0 17 0;
#X connect 23 0 3 0;
#X connect 24 0 23 0;
#X connect 25 0 20 0;
#X connect 25 0 21 1;
#X connect 26 0 4 0;
#X connect 26 1 5 0;
