#N canvas 572 251 450 300 10;
#X obj 88 78 samplerate~;
#X obj 88 54 loadbang;
#X obj 60 220 outlet;
#X obj 39 54 inlet;
#X obj 60 166 *;
#X obj 39 78 / 1000;
#X text 36 11 takes a time in milliseconds in inlet \, and sends the
corresponding number of samples in outlet;
#X obj 39 102 t b f;
#X obj 39 142 f;
#X connect 0 0 8 1;
#X connect 1 0 0 0;
#X connect 3 0 5 0;
#X connect 4 0 2 0;
#X connect 5 0 7 0;
#X connect 7 0 8 0;
#X connect 7 1 4 1;
#X connect 8 0 4 0;
