#N canvas 564 226 916 474 10;
#X obj 35 -7 inlet;
#X obj 86 194 random;
#X obj 295 87 f \$1;
#X obj 327 40 loadbang;
#X obj 295 110 s \$0-MIN;
#X obj 360 87 f \$2;
#X obj 360 109 s \$0-MAX;
#X obj 436 109 s \$0-STEP;
#X obj 436 87 f \$3;
#X obj 163 57 r \$0-MIN;
#X obj 105 57 r \$0-MAX;
#X obj 163 136 -;
#X obj 163 165 /;
#X obj 191 137 r \$0-STEP;
#X obj 86 291 +;
#X obj 112 266 r \$0-MIN;
#X obj 86 239 *;
#X obj 86 313 outlet;
#X obj 111 215 r \$0-STEP;
#X obj 163 79 t b f;
#X obj 327 62 t b b b;
#X obj 104 -6 inlet;
#X obj 160 -6 inlet;
#X obj 216 -6 inlet;
#X obj 104 16 s \$0-MIN;
#X obj 160 16 s \$0-MAX;
#X obj 216 16 s \$0-STEP;
#X connect 0 0 1 0;
#X connect 1 0 16 0;
#X connect 2 0 4 0;
#X connect 3 0 20 0;
#X connect 5 0 6 0;
#X connect 8 0 7 0;
#X connect 9 0 19 0;
#X connect 10 0 11 0;
#X connect 11 0 12 0;
#X connect 12 0 1 1;
#X connect 13 0 12 1;
#X connect 14 0 17 0;
#X connect 15 0 14 1;
#X connect 16 0 14 0;
#X connect 18 0 16 1;
#X connect 19 0 11 0;
#X connect 19 1 11 1;
#X connect 20 0 2 0;
#X connect 20 1 5 0;
#X connect 20 2 8 0;
#X connect 21 0 24 0;
#X connect 22 0 25 0;
#X connect 23 0 26 0;
