#N canvas 133 384 450 300 10;
#X obj 121 74 samp_expfade;
#X floatatom 193 47 5 0 0 0 - - -;
#X obj 122 112 tabwrite~ \$0-testarray;
#X obj 240 183 table \$0-testarray 4410;
#X obj 104 34 bng 15 250 50 0 empty empty empty 17 7 0 10 -262144 -1
-1;
#X connect 0 0 2 0;
#X connect 1 0 0 1;
#X connect 4 0 0 0;
#X connect 4 0 2 0;
