#N canvas 537 382 570 385 10;
#X obj 75 91 samplerate~;
#X obj 75 49 loadbang;
#X floatatom 75 138 5 0 0 0 - - -;
#X obj 60 233 outlet;
#X obj 26 49 inlet;
#X text 77 16 takes a number of samples in inlet \, and sends the corresponding
time in milliseconds in outlet;
#X obj 60 176 /;
#X obj 60 203 * 1000;
#X connect 0 0 2 0;
#X connect 1 0 0 0;
#X connect 2 0 6 1;
#X connect 4 0 6 0;
#X connect 6 0 7 0;
#X connect 7 0 3 0;
