#N canvas 786 188 776 440 10;
#X obj 413 251 del;
#X obj 101 304 *~;
#X msg 116 277 0;
#X msg 149 277 1;
#X msg 281 284 0;
#X msg 248 284 1;
#X obj 238 311 *~;
#X obj 237 244 sig~ 1;
#X obj 88 204 r \$0-PLAY;
#X obj 366 204 r \$0-PLAY;
#X obj 413 282 ead~ 0 5;
#X obj 201 50 inlet;
#X obj 264 50 inlet;
#X obj 264 102 s \$0-SOUND-LENGTH;
#X obj 309 74 f \$1;
#X obj 309 50 loadbang;
#X obj 201 102 s \$0-PLAY;
#X obj 428 204 r \$0-SOUND-LENGTH;
#X obj 390 349 outlet~;
#X obj 387 101 s \$0-EXP-LENGTH;
#X obj 387 78 nbx 5 14 -1e+37 1e+37 0 1 empty empty empty 0 -8 0 10
-262144 -1 -1 10 256;
#X obj 152 204 r \$0-EXP-LENGTH;
#X obj 165 251 del;
#X obj 88 251 ead~ 0 1000;
#X obj 538 204 r \$0-EXP-LENGTH;
#X obj 281 204 r \$0-PLAY;
#X obj 289 262 del 0.5;
#X obj 428 226 -;
#X obj 42 230 del 0.5;
#X msg 150 28 2000;
#X connect 0 0 10 0;
#X connect 0 0 26 0;
#X connect 1 0 18 0;
#X connect 2 0 1 1;
#X connect 3 0 1 1;
#X connect 4 0 6 1;
#X connect 5 0 6 1;
#X connect 6 0 18 0;
#X connect 7 0 6 0;
#X connect 8 0 22 0;
#X connect 8 0 3 0;
#X connect 8 0 28 0;
#X connect 9 0 0 0;
#X connect 10 0 18 0;
#X connect 11 0 16 0;
#X connect 12 0 13 0;
#X connect 14 0 13 0;
#X connect 15 0 14 0;
#X connect 17 0 27 0;
#X connect 20 0 19 0;
#X connect 21 0 22 1;
#X connect 21 0 23 1;
#X connect 22 0 2 0;
#X connect 22 0 5 0;
#X connect 23 0 1 0;
#X connect 24 0 10 2;
#X connect 24 0 27 1;
#X connect 25 0 4 0;
#X connect 26 0 4 0;
#X connect 27 0 0 1;
#X connect 28 0 23 0;
#X connect 29 0 13 0;
