#N canvas 210 214 1115 539 10;
#X obj 162 467 vline~;
#X msg 162 434 \$1 0 \, \$2 \$3 0;
#X obj 162 405 pack f f f;
#X text 285 395 \$1: start \, \$2: end \, \$3: time between start and
end;
#X obj 161 93 inlet;
#X obj 230 93 inlet;
#X obj 307 93 inlet;
#X obj 94 93 inlet;
#X obj 176 41 loadbang;
#X obj 172 66 f \$1;
#X obj 208 66 f \$2;
#X obj 246 66 f \$3;
#X obj 94 183 s \$0-PLAY;
#X obj 86 231 r \$0-PLAY;
#X obj 161 183 s \$0-START;
#X obj 307 182 s \$0-PITCH;
#X obj 101 280 r \$0-START;
#X obj 86 354 f;
#X obj 162 495 outlet~;
#X obj 86 377 millistosamp;
#X obj 248 256 millistosamp;
#X text 374 180 just speed ratio;
#X obj 230 183 s \$0-LENGTH;
#X obj 248 231 r \$0-LENGTH;
#X obj 190 351 +;
#X obj 188 318 t b f;
#X obj 170 231 r \$0-PITCH;
#X obj 188 295 *;
#X obj 170 252 t b f;
#X obj 108 318 millistosamp;
#X connect 0 0 18 0;
#X connect 1 0 0 0;
#X connect 2 0 1 0;
#X connect 4 0 14 0;
#X connect 5 0 22 0;
#X connect 6 0 15 0;
#X connect 7 0 12 0;
#X connect 8 0 9 0;
#X connect 8 0 10 0;
#X connect 8 0 11 0;
#X connect 9 0 14 0;
#X connect 10 0 22 0;
#X connect 11 0 15 0;
#X connect 13 0 17 0;
#X connect 16 0 17 1;
#X connect 16 0 29 0;
#X connect 17 0 19 0;
#X connect 19 0 2 0;
#X connect 20 0 27 0;
#X connect 23 0 20 0;
#X connect 23 0 2 2;
#X connect 24 0 2 1;
#X connect 25 0 24 0;
#X connect 25 1 24 1;
#X connect 26 0 28 0;
#X connect 27 0 25 0;
#X connect 28 0 27 0;
#X connect 28 1 27 1;
#X connect 29 0 24 0;
