#N canvas 66 82 1535 846 10;
#N canvas 0 0 450 300 (subpatch) 0;
#X array \$0-SOUND 9.09158e+06 float 2;
#X coords 0 1 9.09158e+06 -1 200 140 1;
#X restore 135 638 graph;
#X obj 156 542 hsl 128 15 0 100 0 1 \$0-DENSITY \$0-SET-DENSITY density
-47 7 0 10 -262144 -1 -1 12700 1;
#X obj 156 575 hsl 128 8 10 100 0 1 \$0-LENGTH-MAX \$0-INIT-CONTROLS
max -25 3 0 10 -262144 -1 -1 12700 1;
#X obj 156 567 hsl 128 8 10 100 0 1 \$0-LENGTH-MIN \$0-INIT-CONTROLS
min -25 3 0 10 -262144 -1 -1 1700 1;
#X text 52 565 grain length|;
#X obj 154 203 loadbang;
#X obj 335 235 s \$0-SOUND-LENGTH;
#X obj 217 235 s \$0-INIT-CONTROLS;
#X obj 111 235 s \$0-SET-DENSITY;
#X obj 286 567 nbx 5 8 -1e+37 1e+37 0 0 empty \$0-LENGTH-MIN empty
0 -8 0 8 -262144 -1 -1 22.0472 256;
#X obj 286 575 nbx 5 8 -1e+37 1e+37 0 0 empty \$0-LENGTH-MAX empty
0 -8 0 8 -262144 -1 -1 100 256;
#N canvas 66 82 1535 846 grainline 0;
#X obj 35 -3541 tabread4~ \$0-SOUND;
#X obj 58 -3512 *~;
#X floatatom 220 -3594 5 0 0 0 - - -;
#X floatatom 302 -3593 5 0 0 0 - - -;
#X floatatom 75 -3600 5 0 0 0 - - -;
#X obj 90 -3708 bng 15 250 50 0 empty empty empty 17 7 0 10 -262144
-1 -1;
#X obj 89 -3873 random 100;
#X obj 90 -3735 t b b;
#X obj 90 -3790 moses 70;
#X obj 135 -3813 r \$0-DENSITY;
#X msg 114 -3941 stop;
#X obj 179 -3570 win_trapez 0.1 50 0.5;
#X obj 249 -3861 rand_easy;
#X msg 300 -3883 1;
#X floatatom 249 -3835 10 0 0 0 - - -;
#X obj 266 -3957 r \$0-LENGTH-MIN;
#X obj 283 -3934 r \$0-LENGTH-MAX;
#X obj 300 -3906 loadbang;
#X obj 114 -3910 del;
#X msg 203 -3905 50;
#X obj 89 -3843 t f b;
#X obj 75 -3623 r \$0-CLOCK;
#X obj 36 -3569 samp_playramp 0 50 1;
#X obj 89 -3983 r \$0-PLAY;
#X obj 156 -3983 r \$0-END;
#X obj 59 -3485 throw~ \$0-OUT;
#X connect 0 0 1 0;
#X connect 1 0 25 0;
#X connect 2 0 11 1;
#X connect 3 0 11 3;
#X connect 4 0 22 1;
#X connect 5 0 11 0;
#X connect 5 0 22 0;
#X connect 6 0 20 0;
#X connect 7 0 5 0;
#X connect 7 1 12 0;
#X connect 8 0 7 0;
#X connect 9 0 8 1;
#X connect 10 0 18 0;
#X connect 11 0 1 1;
#X connect 12 0 14 0;
#X connect 12 0 18 0;
#X connect 13 0 12 3;
#X connect 14 0 11 2;
#X connect 14 0 22 2;
#X connect 15 0 12 1;
#X connect 16 0 12 2;
#X connect 17 0 13 0;
#X connect 18 0 6 0;
#X connect 19 0 18 0;
#X connect 20 0 8 0;
#X connect 20 1 19 0;
#X connect 21 0 4 0;
#X connect 22 0 0 0;
#X connect 23 0 6 0;
#X connect 24 0 10 0;
#X restore 42 328 pd grainline;
#X obj 393 116 soundfiler;
#X obj 438 37 f \$0;
#X obj 393 141 samptomillis;
#X floatatom 393 166 15 0 0 0 - - -;
#X obj 438 11 loadbang;
#X msg 500 11 bang;
#X obj 439 558 outlet~;
#X msg 393 89 read -resize \$1 \$2-SOUND;
#X obj 393 60 pack s f;
#X obj 168 -52 inlet;
#X obj 277 -53 inlet;
#X obj 745 288 s \$0-CLOCK;
#X msg 799 85 stop;
#X msg 740 86 bang;
#X obj 745 213 f;
#X obj 779 213 + 1;
#X obj 813 212 r \$0-SOUND-LENGTH;
#X obj 745 242 moses;
#X msg 818 266 0;
#X msg 760 139 0;
#X obj 797 110 r \$0-SOUND-LENGTH;
#X obj 745 110 metro 1;
#X obj 797 177 /;
#X obj 277 -27 s \$0-TARGET-LENGTH;
#X obj 803 130 r \$0-TARGET-LENGTH;
#X obj 803 155 t b f;
#X obj 168 -26 s \$0-FILENAME;
#X obj 68 -51 inlet;
#X obj 68 -25 s \$0-PLAY;
#X obj 350 11 r \$0-FILENAME;
#X msg 214 203 bang;
#X obj 740 59 r \$0-PLAY;
#X obj 829 287 s \$0-END;
#X obj 803 59 r \$0-END;
#X obj 839 332 bng 15 250 50 0 empty empty empty 17 7 0 10 -262144
-1 -1;
#X obj 439 534 catch~ \$0-OUT;
#N canvas 66 82 1535 846 grainline 0;
#X obj 35 -3541 tabread4~ \$0-SOUND;
#X obj 58 -3512 *~;
#X floatatom 220 -3594 5 0 0 0 - - -;
#X floatatom 302 -3593 5 0 0 0 - - -;
#X floatatom 75 -3600 5 0 0 0 - - -;
#X obj 90 -3708 bng 15 250 50 0 empty empty empty 17 7 0 10 -262144
-1 -1;
#X obj 89 -3873 random 100;
#X obj 90 -3735 t b b;
#X obj 90 -3790 moses 70;
#X obj 135 -3813 r \$0-DENSITY;
#X msg 114 -3941 stop;
#X obj 179 -3570 win_trapez 0.1 50 0.5;
#X obj 249 -3861 rand_easy;
#X msg 300 -3883 1;
#X floatatom 249 -3835 10 0 0 0 - - -;
#X obj 266 -3957 r \$0-LENGTH-MIN;
#X obj 283 -3934 r \$0-LENGTH-MAX;
#X obj 300 -3906 loadbang;
#X obj 114 -3910 del;
#X msg 203 -3905 50;
#X obj 89 -3843 t f b;
#X obj 75 -3623 r \$0-CLOCK;
#X obj 36 -3569 samp_playramp 0 50 1;
#X obj 89 -3983 r \$0-PLAY;
#X obj 156 -3983 r \$0-END;
#X obj 59 -3485 throw~ \$0-OUT;
#X connect 0 0 1 0;
#X connect 1 0 25 0;
#X connect 2 0 11 1;
#X connect 3 0 11 3;
#X connect 4 0 22 1;
#X connect 5 0 11 0;
#X connect 5 0 22 0;
#X connect 6 0 20 0;
#X connect 7 0 5 0;
#X connect 7 1 12 0;
#X connect 8 0 7 0;
#X connect 9 0 8 1;
#X connect 10 0 18 0;
#X connect 11 0 1 1;
#X connect 12 0 14 0;
#X connect 12 0 18 0;
#X connect 13 0 12 3;
#X connect 14 0 11 2;
#X connect 14 0 22 2;
#X connect 15 0 12 1;
#X connect 16 0 12 2;
#X connect 17 0 13 0;
#X connect 18 0 6 0;
#X connect 19 0 18 0;
#X connect 20 0 8 0;
#X connect 20 1 19 0;
#X connect 21 0 4 0;
#X connect 22 0 0 0;
#X connect 23 0 6 0;
#X connect 24 0 10 0;
#X restore 52 338 pd grainline;
#N canvas 66 82 1535 846 grainline 0;
#X obj 35 -3541 tabread4~ \$0-SOUND;
#X obj 58 -3512 *~;
#X floatatom 220 -3594 5 0 0 0 - - -;
#X floatatom 302 -3593 5 0 0 0 - - -;
#X floatatom 75 -3600 5 0 0 0 - - -;
#X obj 90 -3708 bng 15 250 50 0 empty empty empty 17 7 0 10 -262144
-1 -1;
#X obj 89 -3873 random 100;
#X obj 90 -3735 t b b;
#X obj 90 -3790 moses 70;
#X obj 135 -3813 r \$0-DENSITY;
#X msg 114 -3941 stop;
#X obj 179 -3570 win_trapez 0.1 50 0.5;
#X obj 249 -3861 rand_easy;
#X msg 300 -3883 1;
#X floatatom 249 -3835 10 0 0 0 - - -;
#X obj 266 -3957 r \$0-LENGTH-MIN;
#X obj 283 -3934 r \$0-LENGTH-MAX;
#X obj 300 -3906 loadbang;
#X obj 114 -3910 del;
#X msg 203 -3905 50;
#X obj 89 -3843 t f b;
#X obj 75 -3623 r \$0-CLOCK;
#X obj 36 -3569 samp_playramp 0 50 1;
#X obj 89 -3983 r \$0-PLAY;
#X obj 156 -3983 r \$0-END;
#X obj 59 -3485 throw~ \$0-OUT;
#X connect 0 0 1 0;
#X connect 1 0 25 0;
#X connect 2 0 11 1;
#X connect 3 0 11 3;
#X connect 4 0 22 1;
#X connect 5 0 11 0;
#X connect 5 0 22 0;
#X connect 6 0 20 0;
#X connect 7 0 5 0;
#X connect 7 1 12 0;
#X connect 8 0 7 0;
#X connect 9 0 8 1;
#X connect 10 0 18 0;
#X connect 11 0 1 1;
#X connect 12 0 14 0;
#X connect 12 0 18 0;
#X connect 13 0 12 3;
#X connect 14 0 11 2;
#X connect 14 0 22 2;
#X connect 15 0 12 1;
#X connect 16 0 12 2;
#X connect 17 0 13 0;
#X connect 18 0 6 0;
#X connect 19 0 18 0;
#X connect 20 0 8 0;
#X connect 20 1 19 0;
#X connect 21 0 4 0;
#X connect 22 0 0 0;
#X connect 23 0 6 0;
#X connect 24 0 10 0;
#X restore 62 348 pd grainline;
#N canvas 66 82 1535 846 grainline 0;
#X obj 35 -3541 tabread4~ \$0-SOUND;
#X obj 58 -3512 *~;
#X floatatom 220 -3594 5 0 0 0 - - -;
#X floatatom 302 -3593 5 0 0 0 - - -;
#X floatatom 75 -3600 5 0 0 0 - - -;
#X obj 90 -3708 bng 15 250 50 0 empty empty empty 17 7 0 10 -262144
-1 -1;
#X obj 89 -3873 random 100;
#X obj 90 -3735 t b b;
#X obj 90 -3790 moses 70;
#X obj 135 -3813 r \$0-DENSITY;
#X msg 114 -3941 stop;
#X obj 179 -3570 win_trapez 0.1 50 0.5;
#X obj 249 -3861 rand_easy;
#X msg 300 -3883 1;
#X floatatom 249 -3835 10 0 0 0 - - -;
#X obj 266 -3957 r \$0-LENGTH-MIN;
#X obj 283 -3934 r \$0-LENGTH-MAX;
#X obj 300 -3906 loadbang;
#X obj 114 -3910 del;
#X msg 203 -3905 50;
#X obj 89 -3843 t f b;
#X obj 75 -3623 r \$0-CLOCK;
#X obj 36 -3569 samp_playramp 0 50 1;
#X obj 89 -3983 r \$0-PLAY;
#X obj 156 -3983 r \$0-END;
#X obj 59 -3485 throw~ \$0-OUT;
#X connect 0 0 1 0;
#X connect 1 0 25 0;
#X connect 2 0 11 1;
#X connect 3 0 11 3;
#X connect 4 0 22 1;
#X connect 5 0 11 0;
#X connect 5 0 22 0;
#X connect 6 0 20 0;
#X connect 7 0 5 0;
#X connect 7 1 12 0;
#X connect 8 0 7 0;
#X connect 9 0 8 1;
#X connect 10 0 18 0;
#X connect 11 0 1 1;
#X connect 12 0 14 0;
#X connect 12 0 18 0;
#X connect 13 0 12 3;
#X connect 14 0 11 2;
#X connect 14 0 22 2;
#X connect 15 0 12 1;
#X connect 16 0 12 2;
#X connect 17 0 13 0;
#X connect 18 0 6 0;
#X connect 19 0 18 0;
#X connect 20 0 8 0;
#X connect 20 1 19 0;
#X connect 21 0 4 0;
#X connect 22 0 0 0;
#X connect 23 0 6 0;
#X connect 24 0 10 0;
#X restore 72 358 pd grainline;
#N canvas 66 82 1535 846 grainline 0;
#X obj 35 -3541 tabread4~ \$0-SOUND;
#X obj 58 -3512 *~;
#X floatatom 220 -3594 5 0 0 0 - - -;
#X floatatom 302 -3593 5 0 0 0 - - -;
#X floatatom 75 -3600 5 0 0 0 - - -;
#X obj 90 -3708 bng 15 250 50 0 empty empty empty 17 7 0 10 -262144
-1 -1;
#X obj 89 -3873 random 100;
#X obj 90 -3735 t b b;
#X obj 90 -3790 moses 70;
#X obj 135 -3813 r \$0-DENSITY;
#X msg 114 -3941 stop;
#X obj 179 -3570 win_trapez 0.1 50 0.5;
#X obj 249 -3861 rand_easy;
#X msg 300 -3883 1;
#X floatatom 249 -3835 10 0 0 0 - - -;
#X obj 266 -3957 r \$0-LENGTH-MIN;
#X obj 283 -3934 r \$0-LENGTH-MAX;
#X obj 300 -3906 loadbang;
#X obj 114 -3910 del;
#X msg 203 -3905 50;
#X obj 89 -3843 t f b;
#X obj 75 -3623 r \$0-CLOCK;
#X obj 36 -3569 samp_playramp 0 50 1;
#X obj 89 -3983 r \$0-PLAY;
#X obj 156 -3983 r \$0-END;
#X obj 59 -3485 throw~ \$0-OUT;
#X connect 0 0 1 0;
#X connect 1 0 25 0;
#X connect 2 0 11 1;
#X connect 3 0 11 3;
#X connect 4 0 22 1;
#X connect 5 0 11 0;
#X connect 5 0 22 0;
#X connect 6 0 20 0;
#X connect 7 0 5 0;
#X connect 7 1 12 0;
#X connect 8 0 7 0;
#X connect 9 0 8 1;
#X connect 10 0 18 0;
#X connect 11 0 1 1;
#X connect 12 0 14 0;
#X connect 12 0 18 0;
#X connect 13 0 12 3;
#X connect 14 0 11 2;
#X connect 14 0 22 2;
#X connect 15 0 12 1;
#X connect 16 0 12 2;
#X connect 17 0 13 0;
#X connect 18 0 6 0;
#X connect 19 0 18 0;
#X connect 20 0 8 0;
#X connect 20 1 19 0;
#X connect 21 0 4 0;
#X connect 22 0 0 0;
#X connect 23 0 6 0;
#X connect 24 0 10 0;
#X restore 82 368 pd grainline;
#N canvas 66 82 1535 846 grainline 0;
#X obj 35 -3541 tabread4~ \$0-SOUND;
#X obj 58 -3512 *~;
#X floatatom 220 -3594 5 0 0 0 - - -;
#X floatatom 302 -3593 5 0 0 0 - - -;
#X floatatom 75 -3600 5 0 0 0 - - -;
#X obj 90 -3708 bng 15 250 50 0 empty empty empty 17 7 0 10 -262144
-1 -1;
#X obj 89 -3873 random 100;
#X obj 90 -3735 t b b;
#X obj 90 -3790 moses 70;
#X obj 135 -3813 r \$0-DENSITY;
#X msg 114 -3941 stop;
#X obj 179 -3570 win_trapez 0.1 50 0.5;
#X obj 249 -3861 rand_easy;
#X msg 300 -3883 1;
#X floatatom 249 -3835 10 0 0 0 - - -;
#X obj 266 -3957 r \$0-LENGTH-MIN;
#X obj 283 -3934 r \$0-LENGTH-MAX;
#X obj 300 -3906 loadbang;
#X obj 114 -3910 del;
#X msg 203 -3905 50;
#X obj 89 -3843 t f b;
#X obj 75 -3623 r \$0-CLOCK;
#X obj 36 -3569 samp_playramp 0 50 1;
#X obj 89 -3983 r \$0-PLAY;
#X obj 156 -3983 r \$0-END;
#X obj 59 -3485 throw~ \$0-OUT;
#X connect 0 0 1 0;
#X connect 1 0 25 0;
#X connect 2 0 11 1;
#X connect 3 0 11 3;
#X connect 4 0 22 1;
#X connect 5 0 11 0;
#X connect 5 0 22 0;
#X connect 6 0 20 0;
#X connect 7 0 5 0;
#X connect 7 1 12 0;
#X connect 8 0 7 0;
#X connect 9 0 8 1;
#X connect 10 0 18 0;
#X connect 11 0 1 1;
#X connect 12 0 14 0;
#X connect 12 0 18 0;
#X connect 13 0 12 3;
#X connect 14 0 11 2;
#X connect 14 0 22 2;
#X connect 15 0 12 1;
#X connect 16 0 12 2;
#X connect 17 0 13 0;
#X connect 18 0 6 0;
#X connect 19 0 18 0;
#X connect 20 0 8 0;
#X connect 20 1 19 0;
#X connect 21 0 4 0;
#X connect 22 0 0 0;
#X connect 23 0 6 0;
#X connect 24 0 10 0;
#X restore 92 378 pd grainline;
#N canvas 66 82 1535 846 grainline 0;
#X obj 35 -3541 tabread4~ \$0-SOUND;
#X obj 58 -3512 *~;
#X floatatom 220 -3594 5 0 0 0 - - -;
#X floatatom 302 -3593 5 0 0 0 - - -;
#X floatatom 75 -3600 5 0 0 0 - - -;
#X obj 90 -3708 bng 15 250 50 0 empty empty empty 17 7 0 10 -262144
-1 -1;
#X obj 89 -3873 random 100;
#X obj 90 -3735 t b b;
#X obj 90 -3790 moses 70;
#X obj 135 -3813 r \$0-DENSITY;
#X msg 114 -3941 stop;
#X obj 179 -3570 win_trapez 0.1 50 0.5;
#X obj 249 -3861 rand_easy;
#X msg 300 -3883 1;
#X floatatom 249 -3835 10 0 0 0 - - -;
#X obj 266 -3957 r \$0-LENGTH-MIN;
#X obj 283 -3934 r \$0-LENGTH-MAX;
#X obj 300 -3906 loadbang;
#X obj 114 -3910 del;
#X msg 203 -3905 50;
#X obj 89 -3843 t f b;
#X obj 75 -3623 r \$0-CLOCK;
#X obj 36 -3569 samp_playramp 0 50 1;
#X obj 89 -3983 r \$0-PLAY;
#X obj 156 -3983 r \$0-END;
#X obj 59 -3485 throw~ \$0-OUT;
#X connect 0 0 1 0;
#X connect 1 0 25 0;
#X connect 2 0 11 1;
#X connect 3 0 11 3;
#X connect 4 0 22 1;
#X connect 5 0 11 0;
#X connect 5 0 22 0;
#X connect 6 0 20 0;
#X connect 7 0 5 0;
#X connect 7 1 12 0;
#X connect 8 0 7 0;
#X connect 9 0 8 1;
#X connect 10 0 18 0;
#X connect 11 0 1 1;
#X connect 12 0 14 0;
#X connect 12 0 18 0;
#X connect 13 0 12 3;
#X connect 14 0 11 2;
#X connect 14 0 22 2;
#X connect 15 0 12 1;
#X connect 16 0 12 2;
#X connect 17 0 13 0;
#X connect 18 0 6 0;
#X connect 19 0 18 0;
#X connect 20 0 8 0;
#X connect 20 1 19 0;
#X connect 21 0 4 0;
#X connect 22 0 0 0;
#X connect 23 0 6 0;
#X connect 24 0 10 0;
#X restore 102 388 pd grainline;
#N canvas 66 82 1535 846 grainline 0;
#X obj 35 -3541 tabread4~ \$0-SOUND;
#X obj 58 -3512 *~;
#X floatatom 220 -3594 5 0 0 0 - - -;
#X floatatom 302 -3593 5 0 0 0 - - -;
#X floatatom 75 -3600 5 0 0 0 - - -;
#X obj 90 -3708 bng 15 250 50 0 empty empty empty 17 7 0 10 -262144
-1 -1;
#X obj 89 -3873 random 100;
#X obj 90 -3735 t b b;
#X obj 90 -3790 moses 70;
#X obj 135 -3813 r \$0-DENSITY;
#X msg 114 -3941 stop;
#X obj 179 -3570 win_trapez 0.1 50 0.5;
#X obj 249 -3861 rand_easy;
#X msg 300 -3883 1;
#X floatatom 249 -3835 10 0 0 0 - - -;
#X obj 266 -3957 r \$0-LENGTH-MIN;
#X obj 283 -3934 r \$0-LENGTH-MAX;
#X obj 300 -3906 loadbang;
#X obj 114 -3910 del;
#X msg 203 -3905 50;
#X obj 89 -3843 t f b;
#X obj 75 -3623 r \$0-CLOCK;
#X obj 36 -3569 samp_playramp 0 50 1;
#X obj 89 -3983 r \$0-PLAY;
#X obj 156 -3983 r \$0-END;
#X obj 59 -3485 throw~ \$0-OUT;
#X connect 0 0 1 0;
#X connect 1 0 25 0;
#X connect 2 0 11 1;
#X connect 3 0 11 3;
#X connect 4 0 22 1;
#X connect 5 0 11 0;
#X connect 5 0 22 0;
#X connect 6 0 20 0;
#X connect 7 0 5 0;
#X connect 7 1 12 0;
#X connect 8 0 7 0;
#X connect 9 0 8 1;
#X connect 10 0 18 0;
#X connect 11 0 1 1;
#X connect 12 0 14 0;
#X connect 12 0 18 0;
#X connect 13 0 12 3;
#X connect 14 0 11 2;
#X connect 14 0 22 2;
#X connect 15 0 12 1;
#X connect 16 0 12 2;
#X connect 17 0 13 0;
#X connect 18 0 6 0;
#X connect 19 0 18 0;
#X connect 20 0 8 0;
#X connect 20 1 19 0;
#X connect 21 0 4 0;
#X connect 22 0 0 0;
#X connect 23 0 6 0;
#X connect 24 0 10 0;
#X restore 112 398 pd grainline;
#N canvas 66 82 1535 846 grainline 0;
#X obj 35 -3541 tabread4~ \$0-SOUND;
#X obj 58 -3512 *~;
#X floatatom 220 -3594 5 0 0 0 - - -;
#X floatatom 302 -3593 5 0 0 0 - - -;
#X floatatom 75 -3600 5 0 0 0 - - -;
#X obj 90 -3708 bng 15 250 50 0 empty empty empty 17 7 0 10 -262144
-1 -1;
#X obj 89 -3873 random 100;
#X obj 90 -3735 t b b;
#X obj 90 -3790 moses 70;
#X obj 135 -3813 r \$0-DENSITY;
#X msg 114 -3941 stop;
#X obj 179 -3570 win_trapez 0.1 50 0.5;
#X obj 249 -3861 rand_easy;
#X msg 300 -3883 1;
#X floatatom 249 -3835 10 0 0 0 - - -;
#X obj 266 -3957 r \$0-LENGTH-MIN;
#X obj 283 -3934 r \$0-LENGTH-MAX;
#X obj 300 -3906 loadbang;
#X obj 114 -3910 del;
#X msg 203 -3905 50;
#X obj 89 -3843 t f b;
#X obj 75 -3623 r \$0-CLOCK;
#X obj 36 -3569 samp_playramp 0 50 1;
#X obj 89 -3983 r \$0-PLAY;
#X obj 156 -3983 r \$0-END;
#X obj 59 -3485 throw~ \$0-OUT;
#X connect 0 0 1 0;
#X connect 1 0 25 0;
#X connect 2 0 11 1;
#X connect 3 0 11 3;
#X connect 4 0 22 1;
#X connect 5 0 11 0;
#X connect 5 0 22 0;
#X connect 6 0 20 0;
#X connect 7 0 5 0;
#X connect 7 1 12 0;
#X connect 8 0 7 0;
#X connect 9 0 8 1;
#X connect 10 0 18 0;
#X connect 11 0 1 1;
#X connect 12 0 14 0;
#X connect 12 0 18 0;
#X connect 13 0 12 3;
#X connect 14 0 11 2;
#X connect 14 0 22 2;
#X connect 15 0 12 1;
#X connect 16 0 12 2;
#X connect 17 0 13 0;
#X connect 18 0 6 0;
#X connect 19 0 18 0;
#X connect 20 0 8 0;
#X connect 20 1 19 0;
#X connect 21 0 4 0;
#X connect 22 0 0 0;
#X connect 23 0 6 0;
#X connect 24 0 10 0;
#X restore 122 408 pd grainline;
#N canvas 66 82 1535 846 grainline 0;
#X obj 35 -3541 tabread4~ \$0-SOUND;
#X obj 58 -3512 *~;
#X floatatom 220 -3594 5 0 0 0 - - -;
#X floatatom 302 -3593 5 0 0 0 - - -;
#X floatatom 75 -3600 5 0 0 0 - - -;
#X obj 90 -3708 bng 15 250 50 0 empty empty empty 17 7 0 10 -262144
-1 -1;
#X obj 89 -3873 random 100;
#X obj 90 -3735 t b b;
#X obj 90 -3790 moses 70;
#X obj 135 -3813 r \$0-DENSITY;
#X msg 114 -3941 stop;
#X obj 179 -3570 win_trapez 0.1 50 0.5;
#X obj 249 -3861 rand_easy;
#X msg 300 -3883 1;
#X floatatom 249 -3835 10 0 0 0 - - -;
#X obj 266 -3957 r \$0-LENGTH-MIN;
#X obj 283 -3934 r \$0-LENGTH-MAX;
#X obj 300 -3906 loadbang;
#X obj 114 -3910 del;
#X msg 203 -3905 50;
#X obj 89 -3843 t f b;
#X obj 75 -3623 r \$0-CLOCK;
#X obj 36 -3569 samp_playramp 0 50 1;
#X obj 89 -3983 r \$0-PLAY;
#X obj 156 -3983 r \$0-END;
#X obj 59 -3485 throw~ \$0-OUT;
#X connect 0 0 1 0;
#X connect 1 0 25 0;
#X connect 2 0 11 1;
#X connect 3 0 11 3;
#X connect 4 0 22 1;
#X connect 5 0 11 0;
#X connect 5 0 22 0;
#X connect 6 0 20 0;
#X connect 7 0 5 0;
#X connect 7 1 12 0;
#X connect 8 0 7 0;
#X connect 9 0 8 1;
#X connect 10 0 18 0;
#X connect 11 0 1 1;
#X connect 12 0 14 0;
#X connect 12 0 18 0;
#X connect 13 0 12 3;
#X connect 14 0 11 2;
#X connect 14 0 22 2;
#X connect 15 0 12 1;
#X connect 16 0 12 2;
#X connect 17 0 13 0;
#X connect 18 0 6 0;
#X connect 19 0 18 0;
#X connect 20 0 8 0;
#X connect 20 1 19 0;
#X connect 21 0 4 0;
#X connect 22 0 0 0;
#X connect 23 0 6 0;
#X connect 24 0 10 0;
#X restore 132 418 pd grainline;
#N canvas 66 82 1535 846 grainline 0;
#X obj 35 -3541 tabread4~ \$0-SOUND;
#X obj 58 -3512 *~;
#X floatatom 220 -3594 5 0 0 0 - - -;
#X floatatom 302 -3593 5 0 0 0 - - -;
#X floatatom 75 -3600 5 0 0 0 - - -;
#X obj 90 -3708 bng 15 250 50 0 empty empty empty 17 7 0 10 -262144
-1 -1;
#X obj 89 -3873 random 100;
#X obj 90 -3735 t b b;
#X obj 90 -3790 moses 70;
#X obj 135 -3813 r \$0-DENSITY;
#X msg 114 -3941 stop;
#X obj 179 -3570 win_trapez 0.1 50 0.5;
#X obj 249 -3861 rand_easy;
#X msg 300 -3883 1;
#X floatatom 249 -3835 10 0 0 0 - - -;
#X obj 266 -3957 r \$0-LENGTH-MIN;
#X obj 283 -3934 r \$0-LENGTH-MAX;
#X obj 300 -3906 loadbang;
#X obj 114 -3910 del;
#X msg 203 -3905 50;
#X obj 89 -3843 t f b;
#X obj 75 -3623 r \$0-CLOCK;
#X obj 36 -3569 samp_playramp 0 50 1;
#X obj 89 -3983 r \$0-PLAY;
#X obj 156 -3983 r \$0-END;
#X obj 59 -3485 throw~ \$0-OUT;
#X connect 0 0 1 0;
#X connect 1 0 25 0;
#X connect 2 0 11 1;
#X connect 3 0 11 3;
#X connect 4 0 22 1;
#X connect 5 0 11 0;
#X connect 5 0 22 0;
#X connect 6 0 20 0;
#X connect 7 0 5 0;
#X connect 7 1 12 0;
#X connect 8 0 7 0;
#X connect 9 0 8 1;
#X connect 10 0 18 0;
#X connect 11 0 1 1;
#X connect 12 0 14 0;
#X connect 12 0 18 0;
#X connect 13 0 12 3;
#X connect 14 0 11 2;
#X connect 14 0 22 2;
#X connect 15 0 12 1;
#X connect 16 0 12 2;
#X connect 17 0 13 0;
#X connect 18 0 6 0;
#X connect 19 0 18 0;
#X connect 20 0 8 0;
#X connect 20 1 19 0;
#X connect 21 0 4 0;
#X connect 22 0 0 0;
#X connect 23 0 6 0;
#X connect 24 0 10 0;
#X restore 142 428 pd grainline;
#N canvas 66 82 1535 846 grainline 0;
#X obj 35 -3541 tabread4~ \$0-SOUND;
#X obj 58 -3512 *~;
#X floatatom 220 -3594 5 0 0 0 - - -;
#X floatatom 302 -3593 5 0 0 0 - - -;
#X floatatom 75 -3600 5 0 0 0 - - -;
#X obj 90 -3708 bng 15 250 50 0 empty empty empty 17 7 0 10 -262144
-1 -1;
#X obj 89 -3873 random 100;
#X obj 90 -3735 t b b;
#X obj 90 -3790 moses 70;
#X obj 135 -3813 r \$0-DENSITY;
#X msg 114 -3941 stop;
#X obj 179 -3570 win_trapez 0.1 50 0.5;
#X obj 249 -3861 rand_easy;
#X msg 300 -3883 1;
#X floatatom 249 -3835 10 0 0 0 - - -;
#X obj 266 -3957 r \$0-LENGTH-MIN;
#X obj 283 -3934 r \$0-LENGTH-MAX;
#X obj 300 -3906 loadbang;
#X obj 114 -3910 del;
#X msg 203 -3905 50;
#X obj 89 -3843 t f b;
#X obj 75 -3623 r \$0-CLOCK;
#X obj 36 -3569 samp_playramp 0 50 1;
#X obj 89 -3983 r \$0-PLAY;
#X obj 156 -3983 r \$0-END;
#X obj 59 -3485 throw~ \$0-OUT;
#X connect 0 0 1 0;
#X connect 1 0 25 0;
#X connect 2 0 11 1;
#X connect 3 0 11 3;
#X connect 4 0 22 1;
#X connect 5 0 11 0;
#X connect 5 0 22 0;
#X connect 6 0 20 0;
#X connect 7 0 5 0;
#X connect 7 1 12 0;
#X connect 8 0 7 0;
#X connect 9 0 8 1;
#X connect 10 0 18 0;
#X connect 11 0 1 1;
#X connect 12 0 14 0;
#X connect 12 0 18 0;
#X connect 13 0 12 3;
#X connect 14 0 11 2;
#X connect 14 0 22 2;
#X connect 15 0 12 1;
#X connect 16 0 12 2;
#X connect 17 0 13 0;
#X connect 18 0 6 0;
#X connect 19 0 18 0;
#X connect 20 0 8 0;
#X connect 20 1 19 0;
#X connect 21 0 4 0;
#X connect 22 0 0 0;
#X connect 23 0 6 0;
#X connect 24 0 10 0;
#X restore 152 438 pd grainline;
#N canvas 66 82 1535 846 grainline 0;
#X obj 35 -3541 tabread4~ \$0-SOUND;
#X obj 58 -3512 *~;
#X floatatom 220 -3594 5 0 0 0 - - -;
#X floatatom 302 -3593 5 0 0 0 - - -;
#X floatatom 75 -3600 5 0 0 0 - - -;
#X obj 90 -3708 bng 15 250 50 0 empty empty empty 17 7 0 10 -262144
-1 -1;
#X obj 89 -3873 random 100;
#X obj 90 -3735 t b b;
#X obj 90 -3790 moses 70;
#X obj 135 -3813 r \$0-DENSITY;
#X msg 114 -3941 stop;
#X obj 179 -3570 win_trapez 0.1 50 0.5;
#X obj 249 -3861 rand_easy;
#X msg 300 -3883 1;
#X floatatom 249 -3835 10 0 0 0 - - -;
#X obj 266 -3957 r \$0-LENGTH-MIN;
#X obj 283 -3934 r \$0-LENGTH-MAX;
#X obj 300 -3906 loadbang;
#X obj 114 -3910 del;
#X msg 203 -3905 50;
#X obj 89 -3843 t f b;
#X obj 75 -3623 r \$0-CLOCK;
#X obj 36 -3569 samp_playramp 0 50 1;
#X obj 89 -3983 r \$0-PLAY;
#X obj 156 -3983 r \$0-END;
#X obj 59 -3485 throw~ \$0-OUT;
#X connect 0 0 1 0;
#X connect 1 0 25 0;
#X connect 2 0 11 1;
#X connect 3 0 11 3;
#X connect 4 0 22 1;
#X connect 5 0 11 0;
#X connect 5 0 22 0;
#X connect 6 0 20 0;
#X connect 7 0 5 0;
#X connect 7 1 12 0;
#X connect 8 0 7 0;
#X connect 9 0 8 1;
#X connect 10 0 18 0;
#X connect 11 0 1 1;
#X connect 12 0 14 0;
#X connect 12 0 18 0;
#X connect 13 0 12 3;
#X connect 14 0 11 2;
#X connect 14 0 22 2;
#X connect 15 0 12 1;
#X connect 16 0 12 2;
#X connect 17 0 13 0;
#X connect 18 0 6 0;
#X connect 19 0 18 0;
#X connect 20 0 8 0;
#X connect 20 1 19 0;
#X connect 21 0 4 0;
#X connect 22 0 0 0;
#X connect 23 0 6 0;
#X connect 24 0 10 0;
#X restore 162 448 pd grainline;
#N canvas 66 82 1535 846 grainline 0;
#X obj 35 -3541 tabread4~ \$0-SOUND;
#X obj 58 -3512 *~;
#X floatatom 220 -3594 5 0 0 0 - - -;
#X floatatom 302 -3593 5 0 0 0 - - -;
#X floatatom 75 -3600 5 0 0 0 - - -;
#X obj 90 -3708 bng 15 250 50 0 empty empty empty 17 7 0 10 -262144
-1 -1;
#X obj 89 -3873 random 100;
#X obj 90 -3735 t b b;
#X obj 90 -3790 moses 70;
#X obj 135 -3813 r \$0-DENSITY;
#X msg 114 -3941 stop;
#X obj 179 -3570 win_trapez 0.1 50 0.5;
#X obj 249 -3861 rand_easy;
#X msg 300 -3883 1;
#X floatatom 249 -3835 10 0 0 0 - - -;
#X obj 266 -3957 r \$0-LENGTH-MIN;
#X obj 283 -3934 r \$0-LENGTH-MAX;
#X obj 300 -3906 loadbang;
#X obj 114 -3910 del;
#X msg 203 -3905 50;
#X obj 89 -3843 t f b;
#X obj 75 -3623 r \$0-CLOCK;
#X obj 36 -3569 samp_playramp 0 50 1;
#X obj 89 -3983 r \$0-PLAY;
#X obj 156 -3983 r \$0-END;
#X obj 59 -3485 throw~ \$0-OUT;
#X connect 0 0 1 0;
#X connect 1 0 25 0;
#X connect 2 0 11 1;
#X connect 3 0 11 3;
#X connect 4 0 22 1;
#X connect 5 0 11 0;
#X connect 5 0 22 0;
#X connect 6 0 20 0;
#X connect 7 0 5 0;
#X connect 7 1 12 0;
#X connect 8 0 7 0;
#X connect 9 0 8 1;
#X connect 10 0 18 0;
#X connect 11 0 1 1;
#X connect 12 0 14 0;
#X connect 12 0 18 0;
#X connect 13 0 12 3;
#X connect 14 0 11 2;
#X connect 14 0 22 2;
#X connect 15 0 12 1;
#X connect 16 0 12 2;
#X connect 17 0 13 0;
#X connect 18 0 6 0;
#X connect 19 0 18 0;
#X connect 20 0 8 0;
#X connect 20 1 19 0;
#X connect 21 0 4 0;
#X connect 22 0 0 0;
#X connect 23 0 6 0;
#X connect 24 0 10 0;
#X restore 172 458 pd grainline;
#N canvas 66 82 1535 846 grainline 0;
#X obj 35 -3541 tabread4~ \$0-SOUND;
#X obj 58 -3512 *~;
#X floatatom 220 -3594 5 0 0 0 - - -;
#X floatatom 302 -3593 5 0 0 0 - - -;
#X floatatom 75 -3600 5 0 0 0 - - -;
#X obj 90 -3708 bng 15 250 50 0 empty empty empty 17 7 0 10 -262144
-1 -1;
#X obj 89 -3873 random 100;
#X obj 90 -3735 t b b;
#X obj 90 -3790 moses 70;
#X obj 135 -3813 r \$0-DENSITY;
#X msg 114 -3941 stop;
#X obj 179 -3570 win_trapez 0.1 50 0.5;
#X obj 249 -3861 rand_easy;
#X msg 300 -3883 1;
#X floatatom 249 -3835 10 0 0 0 - - -;
#X obj 266 -3957 r \$0-LENGTH-MIN;
#X obj 283 -3934 r \$0-LENGTH-MAX;
#X obj 300 -3906 loadbang;
#X obj 114 -3910 del;
#X msg 203 -3905 50;
#X obj 89 -3843 t f b;
#X obj 75 -3623 r \$0-CLOCK;
#X obj 36 -3569 samp_playramp 0 50 1;
#X obj 89 -3983 r \$0-PLAY;
#X obj 156 -3983 r \$0-END;
#X obj 59 -3485 throw~ \$0-OUT;
#X connect 0 0 1 0;
#X connect 1 0 25 0;
#X connect 2 0 11 1;
#X connect 3 0 11 3;
#X connect 4 0 22 1;
#X connect 5 0 11 0;
#X connect 5 0 22 0;
#X connect 6 0 20 0;
#X connect 7 0 5 0;
#X connect 7 1 12 0;
#X connect 8 0 7 0;
#X connect 9 0 8 1;
#X connect 10 0 18 0;
#X connect 11 0 1 1;
#X connect 12 0 14 0;
#X connect 12 0 18 0;
#X connect 13 0 12 3;
#X connect 14 0 11 2;
#X connect 14 0 22 2;
#X connect 15 0 12 1;
#X connect 16 0 12 2;
#X connect 17 0 13 0;
#X connect 18 0 6 0;
#X connect 19 0 18 0;
#X connect 20 0 8 0;
#X connect 20 1 19 0;
#X connect 21 0 4 0;
#X connect 22 0 0 0;
#X connect 23 0 6 0;
#X connect 24 0 10 0;
#X restore 167 326 pd grainline;
#N canvas 66 82 1535 846 grainline 0;
#X obj 35 -3541 tabread4~ \$0-SOUND;
#X obj 58 -3512 *~;
#X floatatom 220 -3594 5 0 0 0 - - -;
#X floatatom 302 -3593 5 0 0 0 - - -;
#X floatatom 75 -3600 5 0 0 0 - - -;
#X obj 90 -3708 bng 15 250 50 0 empty empty empty 17 7 0 10 -262144
-1 -1;
#X obj 89 -3873 random 100;
#X obj 90 -3735 t b b;
#X obj 90 -3790 moses 70;
#X obj 135 -3813 r \$0-DENSITY;
#X msg 114 -3941 stop;
#X obj 179 -3570 win_trapez 0.1 50 0.5;
#X obj 249 -3861 rand_easy;
#X msg 300 -3883 1;
#X floatatom 249 -3835 10 0 0 0 - - -;
#X obj 266 -3957 r \$0-LENGTH-MIN;
#X obj 283 -3934 r \$0-LENGTH-MAX;
#X obj 300 -3906 loadbang;
#X obj 114 -3910 del;
#X msg 203 -3905 50;
#X obj 89 -3843 t f b;
#X obj 75 -3623 r \$0-CLOCK;
#X obj 36 -3569 samp_playramp 0 50 1;
#X obj 89 -3983 r \$0-PLAY;
#X obj 156 -3983 r \$0-END;
#X obj 59 -3485 throw~ \$0-OUT;
#X connect 0 0 1 0;
#X connect 1 0 25 0;
#X connect 2 0 11 1;
#X connect 3 0 11 3;
#X connect 4 0 22 1;
#X connect 5 0 11 0;
#X connect 5 0 22 0;
#X connect 6 0 20 0;
#X connect 7 0 5 0;
#X connect 7 1 12 0;
#X connect 8 0 7 0;
#X connect 9 0 8 1;
#X connect 10 0 18 0;
#X connect 11 0 1 1;
#X connect 12 0 14 0;
#X connect 12 0 18 0;
#X connect 13 0 12 3;
#X connect 14 0 11 2;
#X connect 14 0 22 2;
#X connect 15 0 12 1;
#X connect 16 0 12 2;
#X connect 17 0 13 0;
#X connect 18 0 6 0;
#X connect 19 0 18 0;
#X connect 20 0 8 0;
#X connect 20 1 19 0;
#X connect 21 0 4 0;
#X connect 22 0 0 0;
#X connect 23 0 6 0;
#X connect 24 0 10 0;
#X restore 177 336 pd grainline;
#N canvas 66 82 1535 846 grainline 0;
#X obj 35 -3541 tabread4~ \$0-SOUND;
#X obj 58 -3512 *~;
#X floatatom 220 -3594 5 0 0 0 - - -;
#X floatatom 302 -3593 5 0 0 0 - - -;
#X floatatom 75 -3600 5 0 0 0 - - -;
#X obj 90 -3708 bng 15 250 50 0 empty empty empty 17 7 0 10 -262144
-1 -1;
#X obj 89 -3873 random 100;
#X obj 90 -3735 t b b;
#X obj 90 -3790 moses 70;
#X obj 135 -3813 r \$0-DENSITY;
#X msg 114 -3941 stop;
#X obj 179 -3570 win_trapez 0.1 50 0.5;
#X obj 249 -3861 rand_easy;
#X msg 300 -3883 1;
#X floatatom 249 -3835 10 0 0 0 - - -;
#X obj 266 -3957 r \$0-LENGTH-MIN;
#X obj 283 -3934 r \$0-LENGTH-MAX;
#X obj 300 -3906 loadbang;
#X obj 114 -3910 del;
#X msg 203 -3905 50;
#X obj 89 -3843 t f b;
#X obj 75 -3623 r \$0-CLOCK;
#X obj 36 -3569 samp_playramp 0 50 1;
#X obj 89 -3983 r \$0-PLAY;
#X obj 156 -3983 r \$0-END;
#X obj 59 -3485 throw~ \$0-OUT;
#X connect 0 0 1 0;
#X connect 1 0 25 0;
#X connect 2 0 11 1;
#X connect 3 0 11 3;
#X connect 4 0 22 1;
#X connect 5 0 11 0;
#X connect 5 0 22 0;
#X connect 6 0 20 0;
#X connect 7 0 5 0;
#X connect 7 1 12 0;
#X connect 8 0 7 0;
#X connect 9 0 8 1;
#X connect 10 0 18 0;
#X connect 11 0 1 1;
#X connect 12 0 14 0;
#X connect 12 0 18 0;
#X connect 13 0 12 3;
#X connect 14 0 11 2;
#X connect 14 0 22 2;
#X connect 15 0 12 1;
#X connect 16 0 12 2;
#X connect 17 0 13 0;
#X connect 18 0 6 0;
#X connect 19 0 18 0;
#X connect 20 0 8 0;
#X connect 20 1 19 0;
#X connect 21 0 4 0;
#X connect 22 0 0 0;
#X connect 23 0 6 0;
#X connect 24 0 10 0;
#X restore 187 346 pd grainline;
#N canvas 66 82 1535 846 grainline 0;
#X obj 35 -3541 tabread4~ \$0-SOUND;
#X obj 58 -3512 *~;
#X floatatom 220 -3594 5 0 0 0 - - -;
#X floatatom 302 -3593 5 0 0 0 - - -;
#X floatatom 75 -3600 5 0 0 0 - - -;
#X obj 90 -3708 bng 15 250 50 0 empty empty empty 17 7 0 10 -262144
-1 -1;
#X obj 89 -3873 random 100;
#X obj 90 -3735 t b b;
#X obj 90 -3790 moses 70;
#X obj 135 -3813 r \$0-DENSITY;
#X msg 114 -3941 stop;
#X obj 179 -3570 win_trapez 0.1 50 0.5;
#X obj 249 -3861 rand_easy;
#X msg 300 -3883 1;
#X floatatom 249 -3835 10 0 0 0 - - -;
#X obj 266 -3957 r \$0-LENGTH-MIN;
#X obj 283 -3934 r \$0-LENGTH-MAX;
#X obj 300 -3906 loadbang;
#X obj 114 -3910 del;
#X msg 203 -3905 50;
#X obj 89 -3843 t f b;
#X obj 75 -3623 r \$0-CLOCK;
#X obj 36 -3569 samp_playramp 0 50 1;
#X obj 89 -3983 r \$0-PLAY;
#X obj 156 -3983 r \$0-END;
#X obj 59 -3485 throw~ \$0-OUT;
#X connect 0 0 1 0;
#X connect 1 0 25 0;
#X connect 2 0 11 1;
#X connect 3 0 11 3;
#X connect 4 0 22 1;
#X connect 5 0 11 0;
#X connect 5 0 22 0;
#X connect 6 0 20 0;
#X connect 7 0 5 0;
#X connect 7 1 12 0;
#X connect 8 0 7 0;
#X connect 9 0 8 1;
#X connect 10 0 18 0;
#X connect 11 0 1 1;
#X connect 12 0 14 0;
#X connect 12 0 18 0;
#X connect 13 0 12 3;
#X connect 14 0 11 2;
#X connect 14 0 22 2;
#X connect 15 0 12 1;
#X connect 16 0 12 2;
#X connect 17 0 13 0;
#X connect 18 0 6 0;
#X connect 19 0 18 0;
#X connect 20 0 8 0;
#X connect 20 1 19 0;
#X connect 21 0 4 0;
#X connect 22 0 0 0;
#X connect 23 0 6 0;
#X connect 24 0 10 0;
#X restore 197 356 pd grainline;
#N canvas 66 82 1535 846 grainline 0;
#X obj 35 -3541 tabread4~ \$0-SOUND;
#X obj 58 -3512 *~;
#X floatatom 220 -3594 5 0 0 0 - - -;
#X floatatom 302 -3593 5 0 0 0 - - -;
#X floatatom 75 -3600 5 0 0 0 - - -;
#X obj 90 -3708 bng 15 250 50 0 empty empty empty 17 7 0 10 -262144
-1 -1;
#X obj 89 -3873 random 100;
#X obj 90 -3735 t b b;
#X obj 90 -3790 moses 70;
#X obj 135 -3813 r \$0-DENSITY;
#X msg 114 -3941 stop;
#X obj 179 -3570 win_trapez 0.1 50 0.5;
#X obj 249 -3861 rand_easy;
#X msg 300 -3883 1;
#X floatatom 249 -3835 10 0 0 0 - - -;
#X obj 266 -3957 r \$0-LENGTH-MIN;
#X obj 283 -3934 r \$0-LENGTH-MAX;
#X obj 300 -3906 loadbang;
#X obj 114 -3910 del;
#X msg 203 -3905 50;
#X obj 89 -3843 t f b;
#X obj 75 -3623 r \$0-CLOCK;
#X obj 36 -3569 samp_playramp 0 50 1;
#X obj 89 -3983 r \$0-PLAY;
#X obj 156 -3983 r \$0-END;
#X obj 59 -3485 throw~ \$0-OUT;
#X connect 0 0 1 0;
#X connect 1 0 25 0;
#X connect 2 0 11 1;
#X connect 3 0 11 3;
#X connect 4 0 22 1;
#X connect 5 0 11 0;
#X connect 5 0 22 0;
#X connect 6 0 20 0;
#X connect 7 0 5 0;
#X connect 7 1 12 0;
#X connect 8 0 7 0;
#X connect 9 0 8 1;
#X connect 10 0 18 0;
#X connect 11 0 1 1;
#X connect 12 0 14 0;
#X connect 12 0 18 0;
#X connect 13 0 12 3;
#X connect 14 0 11 2;
#X connect 14 0 22 2;
#X connect 15 0 12 1;
#X connect 16 0 12 2;
#X connect 17 0 13 0;
#X connect 18 0 6 0;
#X connect 19 0 18 0;
#X connect 20 0 8 0;
#X connect 20 1 19 0;
#X connect 21 0 4 0;
#X connect 22 0 0 0;
#X connect 23 0 6 0;
#X connect 24 0 10 0;
#X restore 207 366 pd grainline;
#N canvas 66 82 1535 846 grainline 0;
#X obj 35 -3541 tabread4~ \$0-SOUND;
#X obj 58 -3512 *~;
#X floatatom 220 -3594 5 0 0 0 - - -;
#X floatatom 302 -3593 5 0 0 0 - - -;
#X floatatom 75 -3600 5 0 0 0 - - -;
#X obj 90 -3708 bng 15 250 50 0 empty empty empty 17 7 0 10 -262144
-1 -1;
#X obj 89 -3873 random 100;
#X obj 90 -3735 t b b;
#X obj 90 -3790 moses 70;
#X obj 135 -3813 r \$0-DENSITY;
#X msg 114 -3941 stop;
#X obj 179 -3570 win_trapez 0.1 50 0.5;
#X obj 249 -3861 rand_easy;
#X msg 300 -3883 1;
#X floatatom 249 -3835 10 0 0 0 - - -;
#X obj 266 -3957 r \$0-LENGTH-MIN;
#X obj 283 -3934 r \$0-LENGTH-MAX;
#X obj 300 -3906 loadbang;
#X obj 114 -3910 del;
#X msg 203 -3905 50;
#X obj 89 -3843 t f b;
#X obj 75 -3623 r \$0-CLOCK;
#X obj 36 -3569 samp_playramp 0 50 1;
#X obj 89 -3983 r \$0-PLAY;
#X obj 156 -3983 r \$0-END;
#X obj 59 -3485 throw~ \$0-OUT;
#X connect 0 0 1 0;
#X connect 1 0 25 0;
#X connect 2 0 11 1;
#X connect 3 0 11 3;
#X connect 4 0 22 1;
#X connect 5 0 11 0;
#X connect 5 0 22 0;
#X connect 6 0 20 0;
#X connect 7 0 5 0;
#X connect 7 1 12 0;
#X connect 8 0 7 0;
#X connect 9 0 8 1;
#X connect 10 0 18 0;
#X connect 11 0 1 1;
#X connect 12 0 14 0;
#X connect 12 0 18 0;
#X connect 13 0 12 3;
#X connect 14 0 11 2;
#X connect 14 0 22 2;
#X connect 15 0 12 1;
#X connect 16 0 12 2;
#X connect 17 0 13 0;
#X connect 18 0 6 0;
#X connect 19 0 18 0;
#X connect 20 0 8 0;
#X connect 20 1 19 0;
#X connect 21 0 4 0;
#X connect 22 0 0 0;
#X connect 23 0 6 0;
#X connect 24 0 10 0;
#X restore 217 376 pd grainline;
#N canvas 66 82 1535 846 grainline 0;
#X obj 35 -3541 tabread4~ \$0-SOUND;
#X obj 58 -3512 *~;
#X floatatom 220 -3594 5 0 0 0 - - -;
#X floatatom 302 -3593 5 0 0 0 - - -;
#X floatatom 75 -3600 5 0 0 0 - - -;
#X obj 90 -3708 bng 15 250 50 0 empty empty empty 17 7 0 10 -262144
-1 -1;
#X obj 89 -3873 random 100;
#X obj 90 -3735 t b b;
#X obj 90 -3790 moses 70;
#X obj 135 -3813 r \$0-DENSITY;
#X msg 114 -3941 stop;
#X obj 179 -3570 win_trapez 0.1 50 0.5;
#X obj 249 -3861 rand_easy;
#X msg 300 -3883 1;
#X floatatom 249 -3835 10 0 0 0 - - -;
#X obj 266 -3957 r \$0-LENGTH-MIN;
#X obj 283 -3934 r \$0-LENGTH-MAX;
#X obj 300 -3906 loadbang;
#X obj 114 -3910 del;
#X msg 203 -3905 50;
#X obj 89 -3843 t f b;
#X obj 75 -3623 r \$0-CLOCK;
#X obj 36 -3569 samp_playramp 0 50 1;
#X obj 89 -3983 r \$0-PLAY;
#X obj 156 -3983 r \$0-END;
#X obj 59 -3485 throw~ \$0-OUT;
#X connect 0 0 1 0;
#X connect 1 0 25 0;
#X connect 2 0 11 1;
#X connect 3 0 11 3;
#X connect 4 0 22 1;
#X connect 5 0 11 0;
#X connect 5 0 22 0;
#X connect 6 0 20 0;
#X connect 7 0 5 0;
#X connect 7 1 12 0;
#X connect 8 0 7 0;
#X connect 9 0 8 1;
#X connect 10 0 18 0;
#X connect 11 0 1 1;
#X connect 12 0 14 0;
#X connect 12 0 18 0;
#X connect 13 0 12 3;
#X connect 14 0 11 2;
#X connect 14 0 22 2;
#X connect 15 0 12 1;
#X connect 16 0 12 2;
#X connect 17 0 13 0;
#X connect 18 0 6 0;
#X connect 19 0 18 0;
#X connect 20 0 8 0;
#X connect 20 1 19 0;
#X connect 21 0 4 0;
#X connect 22 0 0 0;
#X connect 23 0 6 0;
#X connect 24 0 10 0;
#X restore 227 386 pd grainline;
#N canvas 66 82 1535 846 grainline 0;
#X obj 35 -3541 tabread4~ \$0-SOUND;
#X obj 58 -3512 *~;
#X floatatom 220 -3594 5 0 0 0 - - -;
#X floatatom 302 -3593 5 0 0 0 - - -;
#X floatatom 75 -3600 5 0 0 0 - - -;
#X obj 90 -3708 bng 15 250 50 0 empty empty empty 17 7 0 10 -262144
-1 -1;
#X obj 89 -3873 random 100;
#X obj 90 -3735 t b b;
#X obj 90 -3790 moses 70;
#X obj 135 -3813 r \$0-DENSITY;
#X msg 114 -3941 stop;
#X obj 179 -3570 win_trapez 0.1 50 0.5;
#X obj 249 -3861 rand_easy;
#X msg 300 -3883 1;
#X floatatom 249 -3835 10 0 0 0 - - -;
#X obj 266 -3957 r \$0-LENGTH-MIN;
#X obj 283 -3934 r \$0-LENGTH-MAX;
#X obj 300 -3906 loadbang;
#X obj 114 -3910 del;
#X msg 203 -3905 50;
#X obj 89 -3843 t f b;
#X obj 75 -3623 r \$0-CLOCK;
#X obj 36 -3569 samp_playramp 0 50 1;
#X obj 89 -3983 r \$0-PLAY;
#X obj 156 -3983 r \$0-END;
#X obj 59 -3485 throw~ \$0-OUT;
#X connect 0 0 1 0;
#X connect 1 0 25 0;
#X connect 2 0 11 1;
#X connect 3 0 11 3;
#X connect 4 0 22 1;
#X connect 5 0 11 0;
#X connect 5 0 22 0;
#X connect 6 0 20 0;
#X connect 7 0 5 0;
#X connect 7 1 12 0;
#X connect 8 0 7 0;
#X connect 9 0 8 1;
#X connect 10 0 18 0;
#X connect 11 0 1 1;
#X connect 12 0 14 0;
#X connect 12 0 18 0;
#X connect 13 0 12 3;
#X connect 14 0 11 2;
#X connect 14 0 22 2;
#X connect 15 0 12 1;
#X connect 16 0 12 2;
#X connect 17 0 13 0;
#X connect 18 0 6 0;
#X connect 19 0 18 0;
#X connect 20 0 8 0;
#X connect 20 1 19 0;
#X connect 21 0 4 0;
#X connect 22 0 0 0;
#X connect 23 0 6 0;
#X connect 24 0 10 0;
#X restore 237 396 pd grainline;
#N canvas 66 82 1535 846 grainline 0;
#X obj 35 -3541 tabread4~ \$0-SOUND;
#X obj 58 -3512 *~;
#X floatatom 220 -3594 5 0 0 0 - - -;
#X floatatom 302 -3593 5 0 0 0 - - -;
#X floatatom 75 -3600 5 0 0 0 - - -;
#X obj 90 -3708 bng 15 250 50 0 empty empty empty 17 7 0 10 -262144
-1 -1;
#X obj 89 -3873 random 100;
#X obj 90 -3735 t b b;
#X obj 90 -3790 moses 70;
#X obj 135 -3813 r \$0-DENSITY;
#X msg 114 -3941 stop;
#X obj 179 -3570 win_trapez 0.1 50 0.5;
#X obj 249 -3861 rand_easy;
#X msg 300 -3883 1;
#X floatatom 249 -3835 10 0 0 0 - - -;
#X obj 266 -3957 r \$0-LENGTH-MIN;
#X obj 283 -3934 r \$0-LENGTH-MAX;
#X obj 300 -3906 loadbang;
#X obj 114 -3910 del;
#X msg 203 -3905 50;
#X obj 89 -3843 t f b;
#X obj 75 -3623 r \$0-CLOCK;
#X obj 36 -3569 samp_playramp 0 50 1;
#X obj 89 -3983 r \$0-PLAY;
#X obj 156 -3983 r \$0-END;
#X obj 59 -3485 throw~ \$0-OUT;
#X connect 0 0 1 0;
#X connect 1 0 25 0;
#X connect 2 0 11 1;
#X connect 3 0 11 3;
#X connect 4 0 22 1;
#X connect 5 0 11 0;
#X connect 5 0 22 0;
#X connect 6 0 20 0;
#X connect 7 0 5 0;
#X connect 7 1 12 0;
#X connect 8 0 7 0;
#X connect 9 0 8 1;
#X connect 10 0 18 0;
#X connect 11 0 1 1;
#X connect 12 0 14 0;
#X connect 12 0 18 0;
#X connect 13 0 12 3;
#X connect 14 0 11 2;
#X connect 14 0 22 2;
#X connect 15 0 12 1;
#X connect 16 0 12 2;
#X connect 17 0 13 0;
#X connect 18 0 6 0;
#X connect 19 0 18 0;
#X connect 20 0 8 0;
#X connect 20 1 19 0;
#X connect 21 0 4 0;
#X connect 22 0 0 0;
#X connect 23 0 6 0;
#X connect 24 0 10 0;
#X restore 247 406 pd grainline;
#X connect 5 0 8 0;
#X connect 5 0 7 0;
#X connect 12 0 14 0;
#X connect 13 0 20 1;
#X connect 14 0 15 0;
#X connect 15 0 6 0;
#X connect 16 0 13 0;
#X connect 17 0 13 0;
#X connect 19 0 12 0;
#X connect 20 0 19 0;
#X connect 21 0 38 0;
#X connect 22 0 35 0;
#X connect 24 0 33 0;
#X connect 25 0 33 0;
#X connect 26 0 27 0;
#X connect 26 0 29 0;
#X connect 27 0 26 1;
#X connect 28 0 29 1;
#X connect 29 0 23 0;
#X connect 29 1 30 0;
#X connect 30 0 44 0;
#X connect 30 0 46 0;
#X connect 31 0 26 1;
#X connect 32 0 34 0;
#X connect 32 0 31 0;
#X connect 33 0 26 0;
#X connect 34 0 27 1;
#X connect 36 0 37 0;
#X connect 37 0 34 0;
#X connect 37 1 34 1;
#X connect 39 0 40 0;
#X connect 41 0 20 0;
#X connect 42 0 8 0;
#X connect 42 0 7 0;
#X connect 43 0 25 0;
#X connect 43 0 31 0;
#X connect 45 0 31 0;
#X connect 45 0 24 0;
#X connect 47 0 18 0;
