#N canvas 228 251 876 470 10;
#X obj 185 356 vline~;
#X msg 185 329 0 0 \, \$1 \$2 0 \, 0 \$2 \$3;
#X obj 185 303 pack f f f;
#X floatatom 174 278 5 0 0 0 - - -;
#X obj 109 168 r \$0-AMPL;
#X obj 109 113 s \$0-AMPL;
#X obj 173 113 s \$0-LENGTH;
#X floatatom 213 278 5 0 0 0 - - -;
#X floatatom 252 278 5 0 0 0 - - -;
#X text 331 328 \$1: amplitude \, \$2: slope length \, \$3: decay start
time;
#X obj 174 168 r \$0-LENGTH;
#X obj 250 112 s \$0-SHAPE;
#X obj 252 168 r \$0-SHAPE;
#X obj 261 222 *;
#X obj 252 257 -;
#X obj 252 192 t b f;
#X obj 109 65 inlet;
#X obj 173 65 inlet;
#X obj 250 65 inlet;
#X obj 184 381 outlet~;
#X obj 42 65 inlet;
#X obj 121 222 f;
#X obj 124 13 loadbang;
#X text 317 110 0: square \, 1: triangle;
#X obj 250 91 * 0.5;
#X obj 120 38 f \$1;
#X obj 156 38 f \$2;
#X obj 194 38 f \$3;
#X obj 42 113 s \$0-PLAY;
#X obj 41 168 r \$0-PLAY;
#X connect 0 0 19 0;
#X connect 1 0 0 0;
#X connect 2 0 1 0;
#X connect 3 0 2 0;
#X connect 4 0 21 1;
#X connect 7 0 2 1;
#X connect 8 0 2 2;
#X connect 10 0 13 0;
#X connect 10 0 14 0;
#X connect 12 0 15 0;
#X connect 13 0 7 0;
#X connect 13 0 14 1;
#X connect 14 0 8 0;
#X connect 15 0 13 0;
#X connect 15 0 14 0;
#X connect 15 1 13 1;
#X connect 16 0 5 0;
#X connect 17 0 6 0;
#X connect 18 0 24 0;
#X connect 20 0 28 0;
#X connect 21 0 3 0;
#X connect 22 0 25 0;
#X connect 22 0 26 0;
#X connect 22 0 27 0;
#X connect 24 0 11 0;
#X connect 25 0 5 0;
#X connect 26 0 6 0;
#X connect 27 0 24 0;
#X connect 29 0 21 0;
